Coordinates
version=1
nRows=9
nColumns=24
inDegrees=yes

Units are S.I. units (second, meters, Newtons, ...)
Angles are in degrees.

endheader
time	pelvis_tilt	pelvis_list	pelvis_rotation	pelvis_tx	pelvis_ty	pelvis_tz	hip_flexion_r	hip_adduction_r	hip_rotation_r	knee_angle_r	ankle_angle_r	subtalar_angle_r	mtp_angle_r	hip_flexion_l	hip_adduction_l	hip_rotation_l	knee_angle_l	ankle_angle_l	subtalar_angle_l	mtp_angle_l	lumbar_extension	lumbar_bending	lumbar_rotation
      2.94500000	     -0.77988596	      4.64148654	      2.65985610	     -1.49555810	      0.91289911	      0.19728295	     31.26854711	     -2.86260911	     -6.07939872	    -15.41535411	     10.83459244	     -7.16384299	      0.00000000	    -14.63340858	      8.80981835	      7.87592867	    -17.23280687	     23.44529294	     -9.28057503	      0.00000000	    -13.35902892	     -3.98429677	    -13.45823738
      2.95000000	     -0.77948951	      4.39860472	      2.73938561	     -1.48717484	      0.91201311	      0.19764332	     31.30075626	     -2.62922375	     -6.11580656	    -16.24679936	     10.12351728	     -7.81957265	      0.00000000	    -14.60633073	      8.43439442	      7.31548813	    -18.26380352	     23.33970151	     -8.51080330	      0.00000000	    -13.26778033	     -3.62157757	    -13.48534617
      2.95500000	     -0.83569346	      4.15293411	      2.68210902	     -1.47881816	      0.91107679	      0.19830731	     31.39898831	     -2.29885369	     -5.88948898	    -17.07417131	      9.19688638	     -8.63808714	      0.00000000	    -14.42551278	      8.05184819	      6.38636683	    -19.42591493	     23.23384523	     -7.50550611	      0.00000000	    -13.10730803	     -3.30441377	    -13.33089263
      2.96000000	     -0.90554549	      3.87648391	      2.64019464	     -1.47049518	      0.91023834	      0.19897416	     31.50130325	     -1.94509684	     -5.68166243	    -17.89872370	      8.17432115	     -9.47790774	      0.00000000	    -14.16541504	      7.62479918	      5.48520569	    -20.68873926	     23.01047978	     -6.56545303	      0.00000000	    -12.93937261	     -2.94917835	    -13.17771298
      2.96500000	     -1.01533954	      3.52339502	      2.56873880	     -1.46211106	      0.90951547	      0.19966312	     31.63393532	     -1.51652520	     -5.57170442	    -18.70549337	      7.04172880	    -10.22587196	      0.00000000	    -13.81675915	      7.11516765	      4.58002144	    -22.01822569	     22.65944463	     -5.63826461	      0.00000000	    -12.70299576	     -2.50427558	    -13.01153418
      2.97000000	     -1.12289273	      3.16970887	      2.47854417	     -1.45384675	      0.90886051	      0.20045319	     31.77792116	     -1.05774678	     -5.33778928	    -19.53384134	      5.89177599	    -11.06455944	      0.00000000	    -13.36902307	      6.57779600	      3.56149782	    -23.50282863	     22.23687976	     -4.66506835	      0.00000000	    -12.49637952	     -2.07138012	    -12.80135853
      2.97500000	     -1.23302902	      2.80822147	      2.35245037	     -1.44564193	      0.90830226	      0.20133314	     31.93508174	     -0.55350522	     -4.98019706	    -20.38282244	      4.72149122	    -11.97867176	      0.00000000	    -12.85949933	      6.01982339	      2.54068356	    -25.06846357	     21.67253822	     -3.73189635	      0.00000000	    -12.29595460	     -1.64148373	    -12.56972528
      2.98000000	     -1.37861394	      2.34536904	      2.25507530	     -1.43731640	      0.90781827	      0.20211561	     32.11486289	      0.01905098	     -4.77405651	    -21.23371284	      3.66187097	    -12.75501156	      0.00000000	    -12.25804998	      5.34550481	      1.59818031	    -26.72847336	     20.97933861	     -2.90691199	      0.00000000	    -12.02616708	     -1.07594593	    -12.31028492
      2.98500000	     -1.50653110	      1.94637187	      2.10053446	     -1.42913785	      0.90743743	      0.20306710	     32.28832973	      0.59799191	     -4.34345300	    -22.09593707	      2.59098028	    -13.67858625	      0.00000000	    -11.60818593	      4.71885454	      0.63644129	    -28.47584315	     20.11502163	     -2.08386595	      0.00000000	    -11.80724449	     -0.60827173	    -12.07012587
